<svg width="143" height="143" viewBox="0 0 143 143" fill="none" xmlns="http://www.w3.org/2000/svg">
<path d="M5.13902 80.661C4.69215 78.4266 4.46871 76.1922 4.69215 74.1813C4.69215 71.5 5.36246 69.2657 6.70309 67.0313C8.04371 64.5735 10.2781 62.5625 12.7359 61.4453C15.1937 60.1047 18.3218 59.6578 21.2265 60.1047C23.9078 60.3281 26.589 61.4453 28.8234 63.0094C30.8343 64.35 32.6218 66.1375 34.1859 68.1485C36.6437 71.5 38.4312 75.5219 39.325 80.2141V80.8844C39.7718 83.7891 37.9843 86.4703 35.0796 87.3641C34.6328 87.5875 34.1859 87.5875 33.739 87.5875C31.9515 87.811 30.3875 87.3641 29.0468 86.2469C27.7062 85.1297 26.8125 83.7891 26.589 82.0016C26.1421 78.8735 25.4718 76.1922 24.1312 74.1813C23.014 72.1703 21.2265 70.6063 19.439 70.1594C18.7687 69.936 17.875 69.936 17.2046 70.1594C16.3109 70.3828 15.6406 71.0531 15.1937 71.7235C14.5234 72.6172 14.0765 73.511 14.0765 74.8516C13.8531 76.1922 13.8531 77.5328 14.0765 78.8735C14.5234 81.5547 15.4171 84.6828 16.9812 87.811C17.6515 89.1516 18.5453 90.7157 19.439 92.2797C20.3328 93.8438 21.45 95.1844 22.3437 96.3016C24.8015 99.2063 27.0359 101.441 29.4937 103.228C32.3984 105.239 35.3031 106.58 38.2078 107.027C41.1125 107.473 44.464 107.473 47.8156 106.356C50.4968 105.686 52.0609 106.58 52.5078 107.92C52.9546 109.038 52.2843 110.825 49.6031 111.719H49.3796C45.3578 113.059 41.1125 113.506 37.314 112.836C33.5156 112.389 29.4937 110.602 25.6953 108.367C22.5671 106.356 19.8859 103.675 16.9812 100.547C15.864 99.2063 14.7468 97.8657 13.8531 96.7485L13.4062 96.0782C12.0656 94.5141 10.9484 92.95 10.0546 91.386C7.3734 87.811 5.80934 84.236 5.13902 80.661ZM104.345 124.902C108.367 130.041 126.019 124.902 128.923 119.092C140.542 95.4078 128.923 85.1297 128.923 85.1297L104.345 88.4813C104.345 88.7047 99.4296 118.645 104.345 124.902Z" fill="#3E4347"/>
<path d="M71.053 124.902C67.0312 130.041 49.3796 124.902 46.4749 119.092C34.8562 95.4079 46.4749 85.1298 46.4749 85.1298L71.053 88.4813C71.053 88.7048 76.1921 118.645 71.053 124.902Z" fill="#3E4347"/>
<path d="M77.0859 123.337C76.8625 125.795 71.2765 127.136 64.5734 126.466C57.8703 125.795 52.7312 123.561 52.7312 121.103C52.9546 118.645 58.0937 121.773 64.7968 122.22C71.7234 123.114 77.3093 121.103 77.0859 123.337ZM98.3125 123.337C98.5359 125.795 104.122 127.136 110.825 126.466C117.528 125.795 122.667 123.561 122.667 121.103C122.444 118.645 117.305 121.773 110.602 122.22C103.675 123.114 98.089 121.103 98.3125 123.337Z" fill="white"/>
<path d="M87.5874 134.956C92.0561 139.872 107.473 139.648 112.389 134.956C119.092 128.253 118.869 97.6422 119.092 82.8953L90.0452 80.4375C90.2686 80.4375 82.0015 128.477 87.5874 134.956Z" fill="#4C5359"/>
<path d="M87.8108 134.956C83.3421 139.872 67.9249 139.648 63.0093 134.956C56.3062 128.253 56.5296 97.6422 56.3062 82.8953L85.353 80.4375C85.353 80.4375 93.3968 128.477 87.8108 134.956Z" fill="#4C5359"/>
<path d="M75.9688 97.6422L87.8109 122.667L99.6531 97.6422H75.9688Z" fill="white"/>
<path d="M133.839 4.91557C128.477 1.78745 100.77 16.3109 95.1843 26.1421L135.18 49.8265C140.542 40.2187 138.978 7.82026 133.839 4.91557Z" fill="#4C5359"/>
<path d="M125.572 19.6625C123.561 18.5453 107.25 25.9188 104.122 31.2813L126.466 44.4641C129.37 39.325 127.359 20.7797 125.572 19.6625Z" fill="#F7A4A4"/>
<path d="M41.7828 4.91562C36.4203 8.04374 34.8563 39.9953 40.4422 49.8265L80.4375 26.1422C75.075 16.5344 46.9219 1.78749 41.7828 4.91562Z" fill="#4C5359"/>
<path d="M50.2734 19.6624C48.2625 20.7796 46.2516 39.1015 49.3797 44.464L71.5 31.2812C68.5953 26.1421 52.0609 18.5453 50.2734 19.6624Z" fill="#F7A4A4"/>
<path d="M87.8109 21.0032C41.3359 21.0032 36.8672 53.625 36.8672 71.7235C36.8672 79.3204 59.6578 102.781 87.5875 102.781C115.741 102.781 138.531 79.3204 138.531 71.7235C138.531 53.625 134.062 21.0032 87.8109 21.0032Z" fill="#4C5359"/>
<path d="M74.8515 63.6797C74.8515 63.6797 69.489 71.7235 59.6578 69.2657C49.8265 66.8079 49.3796 57.2 49.3796 57.2C49.3796 57.2 54.7421 49.1563 64.5734 51.6141C74.4046 54.2954 74.8515 63.6797 74.8515 63.6797Z" fill="#BFFFAB"/>
<path d="M73.7344 59.6578C73.7344 59.6578 69.0422 64.7969 62.5625 64.7969C55.6359 64.7969 51.3906 54.9656 51.3906 54.9656C51.3906 54.9656 56.0828 49.6031 64.35 51.8375C72.1703 53.625 73.7344 59.6578 73.7344 59.6578Z" fill="#93E67F"/>
<path d="M66.5842 65.1487C66.5842 76.0971 61.2217 76.0971 61.2217 65.1487C61.2217 54.2003 66.5842 54.2003 66.5842 65.1487Z" fill="#4C5359"/>
<path d="M100.77 63.6797C100.77 63.6797 106.133 71.7235 115.964 69.2657C125.795 66.8079 126.242 57.2 126.242 57.2C126.242 57.2 120.88 49.1563 111.048 51.6141C101.217 54.2954 100.77 63.6797 100.77 63.6797Z" fill="#BFFFAB"/>
<path d="M101.664 59.6578C101.664 59.6578 106.356 64.7969 112.836 64.7969C119.762 64.7969 124.008 54.9656 124.008 54.9656C124.008 54.9656 119.316 49.6031 111.048 51.8375C103.228 53.625 101.664 59.6578 101.664 59.6578Z" fill="#93E67F"/>
<path d="M108.814 65.1487C108.814 76.0971 114.177 76.0971 114.177 65.1487C114.4 54.2003 108.814 54.2003 108.814 65.1487Z" fill="#4C5359"/>
<path d="M102.558 72.6172C98.089 69.2656 93.1733 58.0938 87.8108 58.0938C82.4483 58.0938 77.3093 69.2656 73.064 72.6172C66.1374 77.9797 47.3687 84.0125 47.3687 84.0125C47.3687 84.0125 67.2546 100.994 87.8108 100.994C108.367 100.994 128.253 84.0125 128.253 84.0125C128.253 84.0125 109.484 77.9797 102.558 72.6172Z" fill="white"/>
<path d="M102.111 87.8109C100.547 88.7046 98.5358 89.1515 96.7483 89.1515C94.9608 88.9281 93.1733 88.4812 91.8327 87.364C90.4921 86.2468 89.3749 84.6827 89.1515 83.1187L87.8108 75.7452L86.4702 83.1187C86.2468 84.9062 85.1296 86.2468 83.789 87.364C82.4483 88.4812 80.6608 89.1515 78.8733 89.1515C76.8624 89.1515 75.0749 88.928 73.5108 87.8109C71.9468 86.9171 70.3827 85.353 69.7124 83.3421C69.7124 85.5765 71.053 87.5874 72.6171 88.928C74.1812 90.2687 76.639 91.1624 78.6499 91.3859C80.8843 91.6093 83.1186 90.939 85.1296 89.5984C86.2468 88.928 86.9171 88.0343 87.8108 86.9171C88.4811 88.0343 89.3749 88.928 90.4921 89.5984C92.503 90.939 94.7374 91.6093 96.9718 91.3859C99.2062 91.3859 101.441 90.4921 103.005 88.928C104.792 87.5874 105.909 85.353 105.909 83.3421C105.239 85.353 103.898 86.9171 102.111 87.8109Z" fill="#4C5359"/>
<path d="M94.7373 73.9578C93.3967 72.3937 89.1514 72.1703 87.8107 72.1703C86.4701 72.1703 82.2248 72.3937 80.8842 73.9578C79.9904 75.075 80.6607 77.9797 83.342 80.6609C84.9061 82.225 86.4701 82.6719 87.8107 82.6719C89.1514 82.6719 90.7154 82.225 92.2795 80.6609C94.9607 77.9797 95.6311 75.075 94.7373 73.9578Z" fill="#4C5359"/>
<path d="M87.1406 133.169C87.1406 135.627 82.0015 137.414 75.5218 137.414C69.0421 137.414 63.9031 135.403 63.9031 133.169C63.9031 130.711 69.0421 133.392 75.5218 133.392C81.7781 133.392 87.1406 130.934 87.1406 133.169ZM111.495 133.169C111.495 135.627 106.356 137.414 99.8765 137.414C93.3968 137.414 88.2578 135.403 88.2578 133.169C88.2578 130.711 93.3968 133.392 99.8765 133.392C106.356 133.392 111.495 130.934 111.495 133.169Z" fill="white"/>
<path d="M66.1375 136.744L69.2656 131.381L68.3718 137.638L66.1375 136.744ZM73.9578 138.531L75.0749 131.158L76.1921 138.531H73.9578ZM82.6718 137.638L81.7781 131.828L84.9062 136.967L82.6718 137.638ZM107.25 137.638L106.356 131.381L109.484 136.744L107.25 137.638ZM99.2062 138.531L100.323 131.158L101.441 138.531H99.2062ZM90.4921 136.967L93.6203 131.828L92.7265 137.638L90.4921 136.967Z" fill="#3E4347"/>
</svg>
