<svg width="16" height="16" viewBox="0 0 16 16" fill="none" xmlns="http://www.w3.org/2000/svg">
<g clip-path="url(#clip0_220_20)">
<path d="M1.9 5.09996C2.35 5.82496 2.85 5.92496 3.2 5.49996C3.75 4.84996 3.15 4.02496 2.5 3.79996C1.425 3.37496 0.5 4.57496 0.5 4.57496C0.5 4.57496 1.525 4.47496 1.9 5.09996Z" fill="#F29A2E"/>
<path d="M10.6999 2.55C8.7749 3.675 10.3749 6.375 6.8999 7.1L10.5999 8.925C11.3499 10.225 13.4249 10.325 13.4249 10.325C13.4249 10.325 13.9499 8.775 13.5249 7.625C14.6749 7.625 15.4749 6.925 15.4749 6.925C15.4749 6.925 14.8249 4.625 12.8499 4.625C14.7999 3.825 15.1499 2.175 15.1499 2.175C15.1499 2.175 13.4249 0.975 10.6999 2.55Z" fill="#E1EAF2"/>
<path d="M8.9251 15.5H5.3501C5.3501 15.2 7.4501 15.15 7.5501 13.15C7.8751 15.375 8.9251 15.2 8.9251 15.5Z" fill="#F4BC58"/>
<path d="M12.3501 7.65005C12.3501 10.525 10.0001 13.475 7.1001 13.475C4.2001 13.475 1.8501 10.525 1.8501 7.65005C1.8501 5.72505 6.0001 7.07505 7.1001 7.07505C10.0001 7.05005 12.3501 4.75005 12.3501 7.65005Z" fill="#D1DCE6"/>
<path d="M9.1 12.3001C9.1 12.8751 8.275 14.1251 7.55 14.1251C6.825 14.1251 6 13.2751 6 12.7001C6 12.1251 9.1 12.0251 9.1 12.3001Z" fill="#D1DCE6"/>
<path d="M1.625 6.57505C1.625 7.32505 1.775 9.50005 1.775 9.50005L2.45 8.65005L3.25 9.60005L3.425 8.27505L4.65 9.15005L4.425 7.85005L5.9 8.00005L5.225 7.20005L6.25 6.52505C6.25 6.52505 5 6.80005 5.025 6.02505C5.05 5.25005 5.675 3.05005 4.9 2.72505C3.475 2.20005 1.625 3.40005 1.625 6.57505Z" fill="#E1EAF2"/>
<path d="M1.62495 4.10007C1.7216 4.10007 1.79995 4.06649 1.79995 4.02507C1.79995 3.98365 1.7216 3.95007 1.62495 3.95007C1.5283 3.95007 1.44995 3.98365 1.44995 4.02507C1.44995 4.06649 1.5283 4.10007 1.62495 4.10007Z" fill="#3E4347"/>
<path d="M2.875 4.55005C3.08211 4.55005 3.25 4.38216 3.25 4.17505C3.25 3.96794 3.08211 3.80005 2.875 3.80005C2.66789 3.80005 2.5 3.96794 2.5 4.17505C2.5 4.38216 2.66789 4.55005 2.875 4.55005Z" fill="#3E4347"/>
<path d="M1.95005 5.9C1.95005 6.7 1.42505 6.125 1.42505 6.125C1.25005 6.125 0.525046 6.675 0.775046 5.75C1.10005 4.55 2.35005 3.75 2.35005 3.75C2.35005 3.75 1.95005 4.45 1.95005 5.9Z" fill="#E24B4B"/>
<path d="M5.20001 2.64997V2.34997C5.15001 1.72497 6.05001 1.47497 5.95001 1.14997C5.80001 0.724967 4.62501 0.999966 4.05001 1.92497C3.97501 2.02497 3.92501 2.14997 3.90001 2.29997C3.87501 2.19997 3.85001 2.09997 3.80001 1.99997C3.52501 1.42497 4.35001 0.899967 4.10001 0.624967C3.77501 0.249967 2.80001 0.899966 2.57501 1.97497C2.52501 2.19997 2.52501 2.42497 2.60001 2.64997C2.57501 2.62497 2.55001 2.59997 2.52501 2.59997C2.10001 2.27497 2.52501 1.59997 2.22501 1.44997C1.77501 1.24997 1.37501 2.14997 1.60001 3.02497C1.75001 3.52497 2.30001 4.04997 2.75001 3.62497C2.90001 3.49997 3.25001 3.29997 3.45001 3.22497C3.60001 3.17497 4.00001 3.19997 4.25001 3.37497C4.47501 3.52497 4.65001 3.82497 4.97501 3.82497C6.40001 3.87497 7.17501 2.49997 6.65001 2.19997C6.37501 1.99997 5.95001 2.49997 5.20001 2.64997Z" fill="#E24B4B"/>
<path d="M10.625 10.975C10.4 10.425 9.75002 10.125 9.75002 10.125C10.425 9.77503 10.825 9.02503 10.825 9.02503C10.475 8.87503 9.12502 8.77503 9.12502 8.77503C9.42502 8.47503 9.67502 8.05003 9.67502 8.05003C9.67502 8.05003 8.12502 7.67503 6.82502 8.37503C5.12502 9.32503 5.62502 11.575 7.55002 11.825C9.67502 12.1 10.625 10.975 10.625 10.975Z" fill="#E1EAF2"/>
</g>
<defs>
<clipPath id="clip0_220_20">
<rect width="16" height="16" fill="white"/>
</clipPath>
</defs>
</svg>
