<svg width="31" height="31" viewBox="0 0 31 31" fill="none" xmlns="http://www.w3.org/2000/svg">
<path d="M7.48936 17.7063C7.48936 17.7063 7.45218 18.3704 7.34858 18.7715C7.24632 19.1739 6.89968 19.4448 7.01257 19.9123C7.08694 20.2204 7.48936 20.4449 8.29288 20.4449C9.0964 20.4449 9.64226 20.2297 9.65819 19.818C9.67679 19.3412 9.38726 19.1725 9.34077 18.6493C9.29429 18.126 9.31288 17.6399 9.31288 17.6399L7.48936 17.7063Z" fill="#855B51"/>
<path d="M2.80888 15.6211C2.80888 15.6211 2.19794 15.7459 1.97349 15.8203C1.74903 15.8947 1.54981 15.9451 1.49935 16.1563C1.44888 16.3675 1.39974 16.904 2.20989 17.2653C3.02005 17.6265 4.3163 17.5017 4.3163 17.5017C4.3163 17.5017 4.1795 18.0383 4.62841 18.2866C5.07731 18.5363 5.94989 18.4739 6.54755 18.2747C7.14521 18.0754 7.33247 17.9506 7.33247 17.9506C7.33247 17.9506 7.6313 18.4739 8.65396 18.4619C9.67661 18.45 9.96216 18.0754 9.96216 18.0754C9.96216 18.0754 11.022 18.6864 11.9185 18.4991C12.815 18.3119 12.5414 17.4645 12.5414 17.4645C12.5414 17.4645 13.6636 17.689 14.5986 17.3025C15.5336 16.916 15.608 16.4299 15.5828 16.2798C15.5575 16.1297 15.365 15.8495 15.0529 15.8747C14.7408 15.9 14.0249 15.6436 13.738 15.4697C13.4511 15.2957 12.815 14.9836 12.7034 14.9331C12.5918 14.8826 12.3727 14.7206 12.4099 14.5838C12.4471 14.447 12.5029 14.4098 12.7525 14.4337C13.0022 14.459 13.6995 14.459 14.0236 14.2093C14.3476 13.9596 14.5468 13.6116 14.5097 13.4111C14.4725 13.2119 14.1112 13.0498 14.1112 13.0498C14.1112 13.0498 12.2412 12.1892 12.0925 12.1268C11.9424 12.0644 11.5825 11.8771 11.5944 11.7151C11.6064 11.5411 12.7658 11.6646 12.8787 10.954C12.9916 10.2435 12.6662 10.2435 12.4046 10.0934C12.1429 9.94334 11.3819 9.71888 11.3819 9.71888C11.3819 9.71888 10.759 9.32044 10.6461 9.24474C10.5346 9.17037 10.3473 9.04552 10.3593 8.94591C10.3712 8.8463 11.0047 9.04287 11.5559 8.87154C11.9543 8.74669 12.0048 8.47841 11.9238 8.24201C11.884 8.12646 11.1694 7.79974 11.1694 7.79974L7.34575 7.30701C7.34575 7.30701 4.81567 8.15435 4.72802 8.19154C4.64036 8.22873 4.59122 8.39076 4.72802 8.56607C4.86481 8.74005 5.08927 9.00169 5.57536 8.98974C6.06146 8.97779 6.37356 8.76529 6.45989 8.90208C6.54755 9.03888 6.33239 9.25271 6.1863 9.33771L5.37614 9.81185C5.37614 9.81185 3.967 10.4095 3.89263 10.7721C3.81825 11.1347 3.967 11.3126 4.19146 11.4707C4.37872 11.6022 4.73333 11.6513 4.96442 11.6447C5.12646 11.6407 5.22872 11.5955 5.26989 11.7443C5.32567 11.9501 4.97638 12.1308 4.65231 12.2423C4.32825 12.3539 3.69208 12.6408 3.69208 12.6408C3.69208 12.6408 2.64552 12.8904 2.5831 13.002C2.52067 13.1136 2.40911 13.6621 2.84474 14.0486C3.28036 14.4351 4.07856 14.5347 4.07856 14.5347C4.07856 14.5347 3.97896 14.8468 3.77974 15.0208C3.49257 15.2746 3.16425 15.4776 2.80888 15.6211Z" fill="#027F1C"/>
<path d="M8.29293 4.57776C8.60504 4.57776 8.62895 5.11432 9.23988 5.86206C9.90129 6.67221 10.6517 7.37479 10.9571 7.61916C11.2905 7.88745 11.758 8.07737 11.7793 8.13315C11.8005 8.18893 11.2958 8.37885 10.5853 8.41737C9.87473 8.45456 9.20137 8.19291 9.20137 8.19291C9.20137 8.19291 9.71269 9.32713 9.43777 9.58877C9.21598 9.79995 8.44035 9.77604 7.87988 8.9526C7.31941 8.12917 7.30613 7.86752 7.30613 7.86752C7.30613 7.86752 6.4216 8.40409 5.63535 8.41604C4.8491 8.42799 4.72559 8.25666 4.72559 8.19159C4.72559 8.12651 5.61012 7.73073 5.95941 7.46909C6.30871 7.20745 7.08168 6.35081 7.57043 5.64956C7.94496 5.11432 8.04457 4.57776 8.29293 4.57776Z" fill="#02AB47"/>
<path d="M7.57041 9.19031C7.57041 9.19031 7.24635 9.52632 6.73502 9.56484C6.22369 9.60335 5.9501 9.47718 5.9501 9.47718C5.9501 9.47718 5.32057 9.73218 4.75346 10.0629C4.30987 10.3219 3.90213 10.6552 3.91143 10.711C3.92073 10.7668 4.04291 10.9727 4.86502 10.9727C5.68713 10.9727 5.76283 10.7628 6.17323 10.7734C6.69651 10.7854 6.99533 11.7058 7.89315 11.7204C8.64088 11.7323 8.52932 11.1838 8.93971 11.1347C9.35143 11.0842 9.53869 11.4123 10.1178 11.4282C11.7128 11.472 12.9719 10.7548 12.7913 10.3245C12.7315 10.1811 12.3198 9.98054 11.7195 9.76937C11.1524 9.57015 10.9399 9.45195 10.9399 9.45195C10.9399 9.45195 10.8469 9.65117 10.56 9.73882C10.2917 9.81984 9.82424 9.63921 9.82424 9.63921C9.82424 9.63921 9.82424 10.0257 9.38862 10.1001C8.80291 10.1997 8.27963 9.93804 8.0419 9.72554C7.80416 9.51304 7.57041 9.19031 7.57041 9.19031ZM10.0381 14.4497C9.63033 14.6104 9.20268 15.6344 8.3301 15.4099C7.45752 15.1855 7.34596 13.7391 7.34596 13.7391C7.34596 13.7391 5.33119 15.4923 4.72822 14.9358C4.23549 14.4802 5.13994 13.7697 5.13994 13.7697C5.13994 13.7697 4.20494 14.0632 3.39479 13.7139C2.58463 13.3646 2.56869 13.087 2.58463 13.0034C2.60057 12.9197 3.1783 12.7178 3.65643 12.5544C4.04955 12.4203 4.50776 12.2928 4.50776 12.2928C4.50776 12.2928 4.97791 12.4801 4.86635 12.7165C4.75479 12.9529 4.30588 13.1149 4.47987 13.2902C4.65385 13.4642 5.12799 13.1402 5.29002 13.0286C5.45205 12.917 5.91291 12.6806 6.21307 12.6673C6.87315 12.6368 7.13612 13.1415 7.75901 13.0286C8.3819 12.9157 8.8401 12.4177 9.50151 12.33C10.1616 12.2423 10.5733 12.5544 11.2214 12.4801C11.8696 12.4057 12.0967 12.1308 12.0967 12.1308C12.0967 12.1308 12.7567 12.3805 13.3185 12.6169C13.879 12.8533 14.3531 13.1906 14.3531 13.1906C14.3531 13.1906 13.9547 13.5891 13.2442 13.6767C12.5336 13.7644 12.1591 13.4031 12.0223 13.3274C11.8855 13.2517 11.4618 12.8918 11.3489 13.0286C11.2374 13.1654 11.8098 13.4894 12.0595 13.6767C12.3092 13.864 12.8019 14.2651 12.0714 14.6609C11.7035 14.8601 11.236 14.8043 10.9863 14.7485C10.2997 14.5958 10.3143 14.3421 10.0381 14.4497Z" fill="#02AB47"/>
<path d="M10.0765 15.1483C10.0765 15.1483 9.34073 16.0461 8.8055 16.3197C8.27026 16.5933 7.77089 16.5999 7.77089 16.5999C7.77089 16.5999 7.49065 16.8868 7.54643 17.2985C7.58628 17.5933 7.93292 17.8776 8.69261 17.8284C9.45229 17.7793 9.63956 17.604 9.66479 17.3795C9.69003 17.1551 9.53331 16.9439 9.48417 16.8429C9.4337 16.7433 9.22917 16.5069 9.36597 16.4193C9.50276 16.3316 9.63956 16.4697 9.81487 16.7314C9.98886 16.993 10.799 18.3889 11.8589 17.94C12.9067 17.4964 11.6225 16.4936 11.8841 16.3316C12.1457 16.1696 12.8071 16.7433 13.8285 16.6809C14.9388 16.6132 15.1871 16.0554 15.1871 15.8893C15.1871 15.8269 14.7316 15.8269 14.3517 15.7393C14.0635 15.6729 13.6478 15.4152 13.6478 15.4152C13.6478 15.4152 12.7314 15.7951 11.8721 15.6835C11.0128 15.5719 10.0765 15.1483 10.0765 15.1483ZM6.74823 14.8109C6.74823 14.8109 6.7987 15.6583 6.96073 15.9571C7.12276 16.2559 7.48401 16.5547 7.48401 16.5547C7.48401 16.5547 7.403 16.9479 6.99792 17.2533C6.468 17.6531 5.5144 17.9386 4.95393 17.7899C4.39347 17.6398 4.51831 17.2533 4.56745 17.1046C4.61792 16.9545 5.16511 16.3436 5.30323 16.1444C5.44003 15.9451 5.61534 15.6835 5.45331 15.6463C5.29128 15.6091 5.02964 16.0076 4.84237 16.232C4.65511 16.4565 4.14378 16.9426 3.18487 16.8058C2.22597 16.669 1.48753 16.1258 1.57518 16.0142C1.66284 15.9026 2.3362 15.6715 2.7094 15.5586C3.08393 15.4471 3.7812 15.0221 3.7812 15.0221C3.7812 15.0221 3.71878 15.3833 4.04284 15.5082C4.44925 15.6649 5.01503 15.6197 5.73753 15.3342C6.28472 15.1177 6.74823 14.8109 6.74823 14.8109Z" fill="#02AB47"/>
<path d="M3.19811 15.799C2.96834 15.9969 2.63764 16.0792 2.77709 16.2851C2.91787 16.491 3.18881 16.2572 3.41326 16.0792C3.63772 15.9013 3.89006 15.7246 3.75858 15.5653C3.62842 15.4059 3.40397 15.621 3.19811 15.799ZM5.76936 16.6224C6.01373 16.815 6.18108 16.2771 6.26475 16.0713C6.34842 15.8654 6.541 15.5653 6.37631 15.463C6.15186 15.3222 6.05889 15.6038 5.9274 15.9305C5.79592 16.2572 5.59139 16.4817 5.76936 16.6224ZM6.52639 12.9568C6.39225 12.8559 6.29264 12.9475 6.10537 13.2185C5.91811 13.4894 5.80654 13.686 5.95529 13.7882C6.10537 13.8905 6.35772 13.5266 6.45068 13.3858C6.54365 13.245 6.63928 13.0418 6.52639 12.9568ZM8.38975 13.1946C8.14936 13.2503 8.27553 13.4894 8.32467 13.7178C8.38045 13.9795 8.46545 14.3912 8.50264 14.5028C8.54912 14.6435 8.6049 14.8481 8.78287 14.8016C8.96084 14.7551 8.89709 14.4974 8.87584 14.3806C8.82936 14.1096 8.72576 13.6886 8.69787 13.5585C8.66998 13.4283 8.63279 13.1374 8.38975 13.1946ZM10.3315 15.7804C10.1827 15.9212 10.3687 16.1164 10.5838 16.3595C10.799 16.6025 10.9384 16.8642 11.1164 16.7526C11.2944 16.641 11.0978 16.398 10.9198 16.2014C10.7432 16.0049 10.5094 15.6117 10.3315 15.7804ZM10.0725 12.9449C9.91311 13.0856 10.119 13.2809 10.2412 13.4681C10.3633 13.6554 10.6157 13.9356 10.6901 14.01C10.7644 14.0844 10.88 14.2371 11.0075 14.1601C11.1695 14.0618 11.0168 13.8613 10.9517 13.7856C10.8866 13.7099 10.6715 13.411 10.5493 13.2809C10.4271 13.1507 10.2717 12.7682 10.0725 12.9449ZM10.107 10.0589C9.97686 10.2421 10.2478 10.4334 10.5094 10.5821C10.7711 10.7322 11.046 10.8956 11.1456 10.7322C11.2572 10.5449 10.9862 10.3962 10.7618 10.2647C10.5373 10.1332 10.2478 9.86229 10.107 10.0589ZM7.91959 10.3391C7.63936 10.3205 7.67654 10.5635 7.68584 10.8252C7.69514 11.0868 7.74162 11.2369 7.91959 11.2369C8.09756 11.2369 8.09756 10.966 8.09756 10.8252C8.09756 10.6857 8.09756 10.351 7.91959 10.3391ZM6.45467 10.367C6.57951 10.5689 6.86639 10.2833 6.98725 10.1797C7.10944 10.0774 7.28608 9.92737 7.16522 9.77729C7.04303 9.62721 6.79069 9.84237 6.66983 9.95526C6.54897 10.0681 6.33381 10.1717 6.45467 10.367ZM8.24233 7.5726C8.31803 8.09854 8.42295 8.32034 8.6235 8.25393C8.80279 8.19549 8.67928 7.8701 8.63678 7.56862C8.59561 7.26581 8.58897 7.00284 8.36717 7.03604C8.11881 7.07323 8.19717 7.25651 8.24233 7.5726ZM9.3035 7.38666C9.47084 7.64299 9.64217 7.78643 9.81748 7.67487C9.95162 7.58987 9.76568 7.34416 9.65279 7.19541C9.57576 7.09448 9.35529 6.67346 9.14943 6.85409C9.00998 6.97627 9.12951 7.11971 9.3035 7.38666ZM7.51717 6.78768C7.61412 6.87799 7.51717 7.05862 7.37639 7.2087C7.23561 7.35877 7.04037 7.62971 6.89029 7.48893C6.74022 7.34815 7.00186 7.1144 7.09615 7.00284C7.19045 6.88995 7.36842 6.6469 7.51717 6.78768Z" fill="#028B2B"/>
<path d="M21.4894 17.7063C21.4894 17.7063 21.4522 18.3704 21.3486 18.7715C21.2463 19.1739 20.8997 19.4448 21.0126 19.9123C21.0869 20.2204 21.4894 20.4449 22.2929 20.4449C23.0964 20.4449 23.6423 20.2297 23.6582 19.818C23.6768 19.3412 23.3873 19.1725 23.3408 18.6493C23.2943 18.126 23.3129 17.6399 23.3129 17.6399L21.4894 17.7063Z" fill="#855B51"/>
<path d="M16.8089 15.6211C16.8089 15.6211 16.1979 15.7459 15.9735 15.8203C15.749 15.8947 15.5498 15.9451 15.4993 16.1563C15.4489 16.3675 15.3997 16.904 16.2099 17.2653C17.02 17.6265 18.3163 17.5017 18.3163 17.5017C18.3163 17.5017 18.1795 18.0383 18.6284 18.2866C19.0773 18.5363 19.9499 18.4739 20.5475 18.2747C21.1452 18.0754 21.3325 17.9506 21.3325 17.9506C21.3325 17.9506 21.6313 18.4739 22.654 18.4619C23.6766 18.45 23.9622 18.0754 23.9622 18.0754C23.9622 18.0754 25.022 18.6864 25.9185 18.4991C26.815 18.3119 26.5414 17.4645 26.5414 17.4645C26.5414 17.4645 27.6636 17.689 28.5986 17.3025C29.5336 16.916 29.608 16.4299 29.5828 16.2798C29.5575 16.1297 29.365 15.8495 29.0529 15.8747C28.7408 15.9 28.0249 15.6436 27.738 15.4697C27.4511 15.2957 26.815 14.9836 26.7034 14.9331C26.5918 14.8826 26.3727 14.7206 26.4099 14.5838C26.4471 14.447 26.5029 14.4098 26.7525 14.4337C27.0022 14.459 27.6995 14.459 28.0236 14.2093C28.3476 13.9596 28.5468 13.6116 28.5097 13.4111C28.4725 13.2119 28.1112 13.0498 28.1112 13.0498C28.1112 13.0498 26.2412 12.1892 26.0925 12.1268C25.9424 12.0644 25.5825 11.8771 25.5944 11.7151C25.6064 11.5411 26.7658 11.6646 26.8787 10.954C26.9916 10.2435 26.6662 10.2435 26.4046 10.0934C26.1429 9.94334 25.3819 9.71888 25.3819 9.71888C25.3819 9.71888 24.759 9.32044 24.6461 9.24474C24.5346 9.17037 24.3473 9.04552 24.3593 8.94591C24.3712 8.8463 25.0047 9.04287 25.5559 8.87154C25.9543 8.74669 26.0048 8.47841 25.9238 8.24201C25.884 8.12646 25.1694 7.79974 25.1694 7.79974L21.3458 7.30701C21.3458 7.30701 18.8157 8.15435 18.728 8.19154C18.6404 8.22873 18.5912 8.39076 18.728 8.56607C18.8648 8.74005 19.0893 9.00169 19.5754 8.98974C20.0615 8.97779 20.3736 8.76529 20.4599 8.90208C20.5475 9.03888 20.3324 9.25271 20.1863 9.33771L19.3761 9.81185C19.3761 9.81185 17.967 10.4095 17.8926 10.7721C17.8183 11.1347 17.967 11.3126 18.1915 11.4707C18.3787 11.6022 18.7333 11.6513 18.9644 11.6447C19.1265 11.6407 19.2287 11.5955 19.2699 11.7443C19.3257 11.9501 18.9764 12.1308 18.6523 12.2423C18.3283 12.3539 17.6921 12.6408 17.6921 12.6408C17.6921 12.6408 16.6455 12.8904 16.5831 13.002C16.5207 13.1136 16.4091 13.6621 16.8447 14.0486C17.2804 14.4351 18.0786 14.5347 18.0786 14.5347C18.0786 14.5347 17.979 14.8468 17.7797 15.0208C17.4926 15.2746 17.1642 15.4776 16.8089 15.6211Z" fill="#027F1C"/>
<path d="M22.2929 4.57776C22.605 4.57776 22.6289 5.11432 23.2399 5.86206C23.9013 6.67221 24.6517 7.37479 24.9571 7.61916C25.2905 7.88745 25.758 8.07737 25.7793 8.13315C25.8005 8.18893 25.2958 8.37885 24.5853 8.41737C23.8747 8.45456 23.2014 8.19291 23.2014 8.19291C23.2014 8.19291 23.7127 9.32713 23.4378 9.58877C23.216 9.79995 22.4404 9.77604 21.8799 8.9526C21.3194 8.12917 21.3061 7.86752 21.3061 7.86752C21.3061 7.86752 20.4216 8.40409 19.6354 8.41604C18.8491 8.42799 18.7256 8.25666 18.7256 8.19159C18.7256 8.12651 19.6101 7.73073 19.9594 7.46909C20.3087 7.20745 21.0817 6.35081 21.5704 5.64956C21.945 5.11432 22.0446 4.57776 22.2929 4.57776Z" fill="#02AB47"/>
<path d="M21.5704 9.19031C21.5704 9.19031 21.2463 9.52632 20.735 9.56484C20.2237 9.60335 19.9501 9.47718 19.9501 9.47718C19.9501 9.47718 19.3206 9.73218 18.7535 10.0629C18.3099 10.3219 17.9021 10.6552 17.9114 10.711C17.9207 10.7668 18.0429 10.9727 18.865 10.9727C19.6871 10.9727 19.7628 10.7628 20.1732 10.7734C20.6965 10.7854 20.9953 11.7058 21.8931 11.7204C22.6409 11.7323 22.5293 11.1838 22.9397 11.1347C23.3514 11.0842 23.5387 11.4123 24.1178 11.4282C25.7128 11.472 26.9719 10.7548 26.7913 10.3245C26.7315 10.1811 26.3198 9.98054 25.7195 9.76937C25.1524 9.57015 24.9399 9.45195 24.9399 9.45195C24.9399 9.45195 24.8469 9.65117 24.56 9.73882C24.2917 9.81984 23.8242 9.63921 23.8242 9.63921C23.8242 9.63921 23.8242 10.0257 23.3886 10.1001C22.8029 10.1997 22.2796 9.93804 22.0419 9.72554C21.8042 9.51304 21.5704 9.19031 21.5704 9.19031ZM24.0381 14.4497C23.6303 14.6104 23.2027 15.6344 22.3301 15.4099C21.4575 15.1855 21.346 13.7391 21.346 13.7391C21.346 13.7391 19.3312 15.4923 18.7282 14.9358C18.2355 14.4802 19.1399 13.7697 19.1399 13.7697C19.1399 13.7697 18.2049 14.0632 17.3948 13.7139C16.5846 13.3646 16.5687 13.087 16.5846 13.0034C16.6006 12.9197 17.1783 12.7178 17.6564 12.5544C18.0496 12.4203 18.5078 12.2928 18.5078 12.2928C18.5078 12.2928 18.9779 12.4801 18.8663 12.7165C18.7548 12.9529 18.3059 13.1149 18.4799 13.2902C18.6538 13.4642 19.128 13.1402 19.29 13.0286C19.4521 12.917 19.9129 12.6806 20.2131 12.6673C20.8731 12.6368 21.1361 13.1415 21.759 13.0286C22.3819 12.9157 22.8401 12.4177 23.5015 12.33C24.1616 12.2423 24.5733 12.5544 25.2214 12.4801C25.8696 12.4057 26.0967 12.1308 26.0967 12.1308C26.0967 12.1308 26.7567 12.3805 27.3185 12.6169C27.879 12.8533 28.3531 13.1906 28.3531 13.1906C28.3531 13.1906 27.9547 13.5891 27.2442 13.6767C26.5336 13.7644 26.1591 13.4031 26.0223 13.3274C25.8855 13.2517 25.4618 12.8918 25.3489 13.0286C25.2374 13.1654 25.8098 13.4894 26.0595 13.6767C26.3092 13.864 26.8019 14.2651 26.0714 14.6609C25.7035 14.8601 25.236 14.8043 24.9863 14.7485C24.2997 14.5958 24.3143 14.3421 24.0381 14.4497Z" fill="#02AB47"/>
<path d="M24.0765 15.1483C24.0765 15.1483 23.3407 16.0461 22.8055 16.3197C22.2703 16.5933 21.7709 16.5999 21.7709 16.5999C21.7709 16.5999 21.4907 16.8868 21.5464 17.2985C21.5863 17.5933 21.9329 17.8776 22.6926 17.8284C23.4523 17.7793 23.6396 17.604 23.6648 17.3795C23.69 17.1551 23.5333 16.9439 23.4842 16.8429C23.4337 16.7433 23.2292 16.5069 23.366 16.4193C23.5028 16.3316 23.6396 16.4697 23.8149 16.7314C23.9889 16.993 24.799 18.3889 25.8589 17.94C26.9067 17.4964 25.6225 16.4936 25.8841 16.3316C26.1457 16.1696 26.8071 16.7433 27.8285 16.6809C28.9388 16.6132 29.1871 16.0554 29.1871 15.8893C29.1871 15.8269 28.7316 15.8269 28.3517 15.7393C28.0635 15.6729 27.6478 15.4152 27.6478 15.4152C27.6478 15.4152 26.7314 15.7951 25.8721 15.6835C25.0128 15.5719 24.0765 15.1483 24.0765 15.1483ZM20.7482 14.8109C20.7482 14.8109 20.7987 15.6583 20.9607 15.9571C21.1228 16.2559 21.484 16.5547 21.484 16.5547C21.484 16.5547 21.403 16.9479 20.9979 17.2533C20.468 17.6531 19.5144 17.9386 18.9539 17.7899C18.3935 17.6398 18.5183 17.2533 18.5674 17.1046C18.6179 16.9545 19.1651 16.3436 19.3032 16.1444C19.44 15.9451 19.6153 15.6835 19.4533 15.6463C19.2913 15.6091 19.0296 16.0076 18.8424 16.232C18.6551 16.4565 18.1438 16.9426 17.1849 16.8058C16.226 16.669 15.4875 16.1258 15.5752 16.0142C15.6628 15.9026 16.3362 15.6715 16.7094 15.5586C17.0839 15.4471 17.7812 15.0221 17.7812 15.0221C17.7812 15.0221 17.7188 15.3833 18.0428 15.5082C18.4492 15.6649 19.015 15.6197 19.7375 15.3342C20.2847 15.1177 20.7482 14.8109 20.7482 14.8109Z" fill="#02AB47"/>
<path d="M17.1981 15.799C16.9683 15.9969 16.6376 16.0792 16.7771 16.2851C16.9179 16.491 17.1888 16.2572 17.4133 16.0792C17.6377 15.9013 17.8901 15.7246 17.7586 15.5653C17.6284 15.4059 17.404 15.621 17.1981 15.799ZM19.7694 16.6224C20.0137 16.815 20.1811 16.2771 20.2647 16.0713C20.3484 15.8654 20.541 15.5653 20.3763 15.463C20.1519 15.3222 20.0589 15.6038 19.9274 15.9305C19.7959 16.2572 19.5914 16.4817 19.7694 16.6224ZM20.5264 12.9568C20.3922 12.8559 20.2926 12.9475 20.1054 13.2185C19.9181 13.4894 19.8065 13.686 19.9553 13.7882C20.1054 13.8905 20.3577 13.5266 20.4507 13.3858C20.5437 13.245 20.6393 13.0418 20.5264 12.9568ZM22.3897 13.1946C22.1494 13.2503 22.2755 13.4894 22.3247 13.7178C22.3805 13.9795 22.4654 14.3912 22.5026 14.5028C22.5491 14.6435 22.6049 14.8481 22.7829 14.8016C22.9608 14.7551 22.8971 14.4974 22.8758 14.3806C22.8294 14.1096 22.7258 13.6886 22.6979 13.5585C22.67 13.4283 22.6328 13.1374 22.3897 13.1946ZM24.3315 15.7804C24.1827 15.9212 24.3687 16.1164 24.5838 16.3595C24.799 16.6025 24.9384 16.8642 25.1164 16.7526C25.2944 16.641 25.0978 16.398 24.9198 16.2014C24.7432 16.0049 24.5094 15.6117 24.3315 15.7804ZM24.0725 12.9449C23.9131 13.0856 24.119 13.2809 24.2412 13.4681C24.3633 13.6554 24.6157 13.9356 24.6901 14.01C24.7644 14.0844 24.88 14.2371 25.0075 14.1601C25.1695 14.0618 25.0168 13.8613 24.9517 13.7856C24.8866 13.7099 24.6715 13.411 24.5493 13.2809C24.4271 13.1507 24.2717 12.7682 24.0725 12.9449ZM24.107 10.0589C23.9769 10.2421 24.2478 10.4334 24.5094 10.5821C24.7711 10.7322 25.046 10.8956 25.1456 10.7322C25.2572 10.5449 24.9862 10.3962 24.7618 10.2647C24.5373 10.1332 24.2478 9.86229 24.107 10.0589ZM21.9196 10.3391C21.6394 10.3205 21.6765 10.5635 21.6858 10.8252C21.6951 11.0868 21.7416 11.2369 21.9196 11.2369C22.0976 11.2369 22.0976 10.966 22.0976 10.8252C22.0976 10.6857 22.0976 10.351 21.9196 10.3391ZM20.4547 10.367C20.5795 10.5689 20.8664 10.2833 20.9872 10.1797C21.1094 10.0774 21.2861 9.92737 21.1652 9.77729C21.043 9.62721 20.7907 9.84237 20.6698 9.95526C20.549 10.0681 20.3338 10.1717 20.4547 10.367ZM22.2423 7.5726C22.318 8.09854 22.423 8.32034 22.6235 8.25393C22.8028 8.19549 22.6793 7.8701 22.6368 7.56862C22.5956 7.26581 22.589 7.00284 22.3672 7.03604C22.1188 7.07323 22.1972 7.25651 22.2423 7.5726ZM23.3035 7.38666C23.4708 7.64299 23.6422 7.78643 23.8175 7.67487C23.9516 7.58987 23.7657 7.34416 23.6528 7.19541C23.5758 7.09448 23.3553 6.67346 23.1494 6.85409C23.01 6.97627 23.1295 7.11971 23.3035 7.38666ZM21.5172 6.78768C21.6141 6.87799 21.5172 7.05862 21.3764 7.2087C21.2356 7.35877 21.0404 7.62971 20.8903 7.48893C20.7402 7.34815 21.0019 7.1144 21.0962 7.00284C21.1905 6.88995 21.3684 6.6469 21.5172 6.78768Z" fill="#028B2B"/>
<path d="M13.8948 24.9938C13.8948 24.9938 13.8357 26.2047 13.6712 26.9361C13.5088 27.6699 12.9582 28.164 13.1375 29.0165C13.2556 29.5784 13.8948 29.9877 15.171 29.9877C16.4471 29.9877 17.3141 29.5953 17.3394 28.8446C17.3689 27.9751 16.9091 27.6675 16.8353 26.7133C16.7614 25.7591 16.791 24.8727 16.791 24.8727L13.8948 24.9938Z" fill="#855B51"/>
<path d="M6.46137 21.1915C6.46137 21.1915 5.49106 21.4191 5.13458 21.5547C4.77809 21.6904 4.46169 21.7824 4.38153 22.1675C4.30137 22.5525 4.22333 23.531 5.51004 24.1897C6.79676 24.8485 8.85551 24.6208 8.85551 24.6208C8.85551 24.6208 8.63825 25.5993 9.35122 26.0522C10.0642 26.5075 11.45 26.3936 12.3993 26.0304C13.3485 25.6671 13.6459 25.4394 13.6459 25.4394C13.6459 25.4394 14.1205 26.3936 15.7447 26.3718C17.369 26.35 17.8225 25.6671 17.8225 25.6671C17.8225 25.6671 19.5057 26.7811 20.9296 26.4397C22.3534 26.0982 21.9189 24.553 21.9189 24.553C21.9189 24.553 23.7013 24.9623 25.1863 24.2575C26.6713 23.5528 26.7894 22.6664 26.7493 22.3927C26.7093 22.119 26.4034 21.608 25.9077 21.654C25.412 21.7 24.275 21.2326 23.8194 20.9154C23.3638 20.5981 22.3534 20.029 22.1762 19.9369C21.999 19.8449 21.651 19.5494 21.71 19.3C21.7691 19.0505 21.8577 18.9827 22.2543 19.0263C22.6508 19.0723 23.7582 19.0723 24.2729 18.617C24.7876 18.1617 25.104 17.5272 25.045 17.1615C24.9859 16.7982 24.4122 16.5027 24.4122 16.5027C24.4122 16.5027 21.4422 14.9333 21.2059 14.8195C20.9675 14.7057 20.3959 14.3642 20.4149 14.0687C20.4339 13.7515 22.2754 13.9767 22.4547 12.681C22.634 11.3853 22.1172 11.3853 21.7016 11.1116C21.2861 10.8379 20.0774 10.4286 20.0774 10.4286C20.0774 10.4286 19.0881 9.70208 18.9088 9.56403C18.7316 9.42841 18.4342 9.20075 18.4532 9.01911C18.4722 8.83747 19.4783 9.19591 20.3537 8.88349C20.9865 8.65583 21.0667 8.16661 20.938 7.73552C20.8747 7.52481 19.7399 6.92903 19.7399 6.92903L13.667 6.03052C13.667 6.03052 9.64864 7.57567 9.50942 7.64349C9.3702 7.7113 9.29215 8.00677 9.50942 8.32646C9.72669 8.64372 10.0832 9.12083 10.8552 9.09903C11.6272 9.07724 12.1229 8.68974 12.26 8.93919C12.3993 9.18864 12.0575 9.57856 11.8255 9.73356L10.5388 10.5982C10.5388 10.5982 8.30075 11.688 8.18262 12.3492C8.0645 13.0104 8.30075 13.3349 8.65723 13.6231C8.95465 13.8629 9.51786 13.9525 9.88489 13.9404C10.1422 13.9331 10.3047 13.8508 10.37 14.122C10.4586 14.4974 9.90387 14.8268 9.38919 15.0302C8.8745 15.2336 7.86411 15.7568 7.86411 15.7568C7.86411 15.7568 6.20192 16.2121 6.10278 16.4155C6.00364 16.619 5.82645 17.6192 6.51833 18.324C7.2102 19.0287 8.47794 19.2104 8.47794 19.2104C8.47794 19.2104 8.31973 19.7795 8.00333 20.0968C7.54723 20.5596 7.02578 20.9298 6.46137 21.1915Z" fill="#027F1C"/>
<path d="M15.1709 1.05347C15.6666 1.05347 15.7046 2.0319 16.6749 3.39542C17.7254 4.87276 18.9172 6.15394 19.4023 6.59956C19.9318 7.08878 20.6743 7.43511 20.708 7.53683C20.7418 7.63855 19.9402 7.98487 18.8117 8.05511C17.6832 8.12292 16.6137 7.64581 16.6137 7.64581C16.6137 7.64581 17.4258 9.71409 16.9892 10.1912C16.6369 10.5763 15.405 10.5327 14.5149 9.03112C13.6247 7.52956 13.6036 7.05245 13.6036 7.05245C13.6036 7.05245 12.1988 8.03089 10.95 8.05269C9.7013 8.07448 9.50513 7.76206 9.50513 7.64339C9.50513 7.52472 10.91 6.803 11.4647 6.32589C12.0195 5.84878 13.2472 4.28667 14.0234 3.00792C14.6183 2.0319 14.7765 1.05347 15.1709 1.05347Z" fill="#02AB47"/>
<path d="M14.0234 9.46472C14.0234 9.46472 13.5087 10.0775 12.6966 10.1477C11.8844 10.2179 11.4499 9.98785 11.4499 9.98785C11.4499 9.98785 10.4501 10.4528 9.54937 11.0559C8.84484 11.5282 8.19726 12.136 8.21202 12.2378C8.22679 12.3395 8.42085 12.7149 9.72656 12.7149C11.0323 12.7149 11.1525 12.3322 11.8043 12.3516C12.6354 12.3734 13.11 14.0518 14.5359 14.0784C15.7235 14.1002 15.5463 13.1 16.1981 13.0103C16.852 12.9183 17.1494 13.5165 18.0691 13.5456C20.6025 13.6255 22.6022 12.3177 22.3153 11.533C22.2204 11.2714 21.5665 10.9057 20.613 10.5207C19.7123 10.1574 19.3748 9.94183 19.3748 9.94183C19.3748 9.94183 19.2272 10.3051 18.7716 10.465C18.3455 10.6127 17.603 10.2833 17.603 10.2833C17.603 10.2833 17.603 10.9881 16.9111 11.1237C15.9809 11.3053 15.1498 10.8282 14.7722 10.4407C14.3946 10.0532 14.0234 9.46472 14.0234 9.46472ZM17.9426 19.0553C17.295 19.3484 16.6158 21.2157 15.2299 20.8064C13.8441 20.3971 13.6669 17.7596 13.6669 17.7596C13.6669 17.7596 10.4669 20.9565 9.50929 19.9418C8.72671 19.111 10.1632 17.8153 10.1632 17.8153C10.1632 17.8153 8.6782 18.3506 7.39148 17.7136C6.10476 17.0767 6.07945 16.5705 6.10476 16.4179C6.13007 16.2653 7.04765 15.8972 7.80702 15.5993C8.4314 15.3547 9.15913 15.1222 9.15913 15.1222C9.15913 15.1222 9.90585 15.4637 9.72866 15.8948C9.55148 16.3259 8.83851 16.6214 9.11484 16.941C9.39116 17.2583 10.1442 16.6674 10.4016 16.4639C10.6589 16.2605 11.3909 15.8294 11.8676 15.8052C12.9159 15.7495 13.3336 16.6698 14.3229 16.4639C15.3122 16.2581 16.0399 15.3499 17.0904 15.19C18.1387 15.0302 18.7926 15.5993 19.822 15.4637C20.8514 15.3281 21.2121 14.8268 21.2121 14.8268C21.2121 14.8268 22.2605 15.2821 23.1527 15.7132C24.0429 16.1443 24.7959 16.7594 24.7959 16.7594C24.7959 16.7594 24.1631 17.486 23.0346 17.6458C21.9061 17.8057 21.3112 17.1469 21.094 17.0089C20.8767 16.8708 20.2038 16.2145 20.0245 16.4639C19.8473 16.7134 20.7565 17.3043 21.153 17.6458C21.5496 17.9873 22.3322 18.7187 21.172 19.4404C20.5877 19.8037 19.8452 19.702 19.4487 19.6003C18.3581 19.3218 18.3813 18.8592 17.9426 19.0553Z" fill="#02AB47"/>
<path d="M18.0038 20.3293C18.0038 20.3293 16.8352 21.9665 15.9851 22.4654C15.1351 22.9643 14.3419 22.9764 14.3419 22.9764C14.3419 22.9764 13.8969 23.4995 13.9855 24.2503C14.0487 24.7879 14.5993 25.3062 15.8058 25.2166C17.0124 25.127 17.3098 24.8073 17.3499 24.398C17.39 23.9887 17.1411 23.6036 17.063 23.4196C16.9829 23.2379 16.658 22.8068 16.8753 22.647C17.0926 22.4872 17.3098 22.739 17.5883 23.2161C17.8646 23.6933 19.1513 26.2386 20.8346 25.42C22.4989 24.6111 20.4591 22.7826 20.8747 22.4872C21.2902 22.1917 22.3407 23.2379 23.9628 23.1241C25.7262 23.0006 26.1207 21.9834 26.1207 21.6807C26.1207 21.5668 25.3972 21.5668 24.7939 21.407C24.3362 21.2859 23.6759 20.8161 23.6759 20.8161C23.6759 20.8161 22.2205 21.5087 20.8557 21.3053C19.4909 21.1018 18.0038 20.3293 18.0038 20.3293ZM12.7177 19.7141C12.7177 19.7141 12.7979 21.2593 13.0552 21.8042C13.3126 22.3491 13.8863 22.894 13.8863 22.894C13.8863 22.894 13.7576 23.6109 13.1143 24.1679C12.2726 24.8969 10.7581 25.4176 9.86796 25.1464C8.9778 24.8727 9.17608 24.1679 9.25413 23.8967C9.33428 23.623 10.2033 22.509 10.4227 22.1457C10.64 21.7824 10.9184 21.3053 10.6611 21.2375C10.4037 21.1697 9.98819 21.8962 9.69077 22.3055C9.39335 22.7148 8.58124 23.6012 7.05827 23.3518C5.5353 23.1023 4.36249 22.1118 4.50171 21.9083C4.64092 21.7049 5.71038 21.2835 6.30311 21.0776C6.89796 20.8742 8.00538 20.0992 8.00538 20.0992C8.00538 20.0992 7.90624 20.7579 8.42092 20.9856C9.06639 21.2714 9.96499 21.189 11.1125 20.6683C11.9815 20.2736 12.7177 19.7141 12.7177 19.7141Z" fill="#02AB47"/>
<path d="M7.0793 21.516C6.71438 21.8769 6.18915 22.027 6.41063 22.4024C6.63422 22.7778 7.06454 22.3515 7.42102 22.027C7.77751 21.7025 8.17829 21.3804 7.96946 21.0897C7.76274 20.7991 7.40626 21.1915 7.0793 21.516ZM11.1631 23.0176C11.5512 23.3687 11.817 22.3879 11.9498 22.0125C12.0827 21.6371 12.3886 21.0897 12.127 20.9033C11.7706 20.6465 11.6229 21.16 11.4141 21.7558C11.2052 22.3515 10.8804 22.7608 11.1631 23.0176ZM12.3654 16.3332C12.1523 16.1491 11.9941 16.3162 11.6967 16.8103C11.3993 17.3044 11.2221 17.6628 11.4584 17.8493C11.6967 18.0358 12.0975 17.3722 12.2452 17.1155C12.3928 16.8587 12.5447 16.4882 12.3654 16.3332ZM15.3248 16.7667C14.9431 16.8684 15.1434 17.3044 15.2215 17.7209C15.3101 18.198 15.4451 18.9488 15.5041 19.1522C15.578 19.409 15.6666 19.7819 15.9492 19.6972C16.2319 19.6124 16.1306 19.1426 16.0969 18.9294C16.0231 18.4354 15.8585 17.6676 15.8142 17.4303C15.7699 17.193 15.7109 16.6626 15.3248 16.7667ZM18.4088 21.4821C18.1725 21.7388 18.4678 22.0948 18.8095 22.538C19.1513 22.9812 19.3727 23.4583 19.6554 23.2549C19.9381 23.0515 19.6259 22.6083 19.3432 22.2498C19.0627 21.8914 18.6914 21.1745 18.4088 21.4821ZM17.9974 16.3114C17.7443 16.5681 18.0713 16.9241 18.2653 17.2656C18.4594 17.6071 18.8602 18.1181 18.9783 18.2537C19.0964 18.3894 19.2799 18.6679 19.4824 18.5274C19.7398 18.3482 19.4972 17.9825 19.3938 17.8444C19.2905 17.7064 18.9488 17.1615 18.7547 16.9241C18.5606 16.6868 18.3138 15.9893 17.9974 16.3114ZM18.0523 11.0487C17.8456 11.3829 18.2759 11.7316 18.6914 12.0029C19.107 12.2765 19.5436 12.5744 19.7018 12.2765C19.879 11.9351 19.4487 11.6638 19.0922 11.424C18.7357 11.1843 18.2759 10.6902 18.0523 11.0487ZM14.5781 11.5597C14.1331 11.5258 14.1921 11.969 14.2069 12.4461C14.2216 12.9232 14.2955 13.1969 14.5781 13.1969C14.8608 13.1969 14.8608 12.7028 14.8608 12.4461C14.8608 12.1918 14.8608 11.5815 14.5781 11.5597ZM12.2515 11.6105C12.4498 11.9787 12.9054 11.458 13.0973 11.269C13.2914 11.0826 13.572 10.8089 13.38 10.5352C13.1859 10.2615 12.7852 10.6539 12.5932 10.8597C12.4013 11.0656 12.0595 11.2545 12.2515 11.6105ZM15.0907 6.5149C15.2109 7.47397 15.3776 7.87842 15.6961 7.75733C15.9809 7.65076 15.7847 7.0574 15.7172 6.50764C15.6518 5.95545 15.6413 5.47592 15.289 5.53647C14.8945 5.60428 15.019 5.9385 15.0907 6.5149ZM16.7761 6.17584C17.0419 6.64326 17.314 6.90483 17.5924 6.70139C17.8055 6.54639 17.5102 6.09834 17.3309 5.82709C17.2085 5.64303 16.8584 4.87529 16.5314 5.20467C16.3099 5.42748 16.4998 5.68904 16.7761 6.17584ZM13.939 5.08358C14.093 5.24826 13.939 5.57764 13.7154 5.85131C13.4918 6.12498 13.1817 6.61904 12.9434 6.36233C12.705 6.10561 13.1206 5.67936 13.2703 5.47592C13.4201 5.27006 13.7027 4.82686 13.939 5.08358Z" fill="#028B2B"/>
</svg>
